<svg xmlns="http://www.w3.org/2000/svg" xmlns:xlink="http://www.w3.org/1999/xlink" width="200" zoomAndPan="magnify" viewBox="0 0 150 30.000001" height="40" preserveAspectRatio="xMidYMid meet" version="1.0"><path fill="#253342" d="M 32.78125 7.59375 L 32.742188 7.59375 C 31.910156 7.59375 31.167969 8.179688 30.980469 8.992188 L 27.996094 22.351562 C 27.875 22.855469 27.675781 22.921875 27.488281 22.921875 C 27.203125 22.921875 27.042969 22.777344 26.933594 22.417969 L 23.964844 10.507812 C 23.386719 8.234375 22.125 7.128906 20.082031 7.128906 C 18.050781 7.128906 16.71875 8.273438 16.15625 10.53125 L 13.144531 22.40625 C 13.078125 22.710938 12.890625 22.898438 12.675781 22.898438 C 12.367188 22.898438 12.230469 22.765625 12.125 22.324219 L 9.03125 8.9375 C 8.84375 8.125 8.117188 7.554688 7.285156 7.554688 L 7.21875 7.554688 C 6.667969 7.554688 6.15625 7.792969 5.804688 8.234375 C 5.457031 8.65625 5.335938 9.203125 5.457031 9.734375 L 8.589844 23.082031 C 9.097656 25.238281 10.617188 26.527344 12.660156 26.527344 C 14.652344 26.527344 15.980469 25.34375 16.503906 23.121094 L 19.554688 11.066406 C 19.652344 10.625 19.867188 10.574219 20.027344 10.574219 C 20.308594 10.574219 20.46875 10.71875 20.578125 11.078125 L 23.589844 23.136719 C 24.125 25.371094 25.457031 26.554688 27.433594 26.554688 C 29.449219 26.554688 30.96875 25.261719 31.464844 23.109375 L 34.542969 9.761719 C 34.664062 9.230469 34.53125 8.683594 34.195312 8.257812 C 33.84375 7.832031 33.332031 7.59375 32.78125 7.59375 Z M 32.78125 7.59375 " fill-opacity="1" fill-rule="nonzero"/><path fill="#253342" d="M 45.726562 7.277344 C 40.1875 7.277344 35.875 11.554688 35.875 16.808594 C 35.875 22.097656 40.160156 26.40625 45.726562 26.40625 C 47.753906 26.40625 49.597656 25.835938 51.140625 24.839844 C 52.191406 24.160156 52.257812 22.683594 51.261719 21.941406 L 51.238281 21.914062 C 50.632812 21.460938 49.796875 21.421875 49.167969 21.859375 C 48.199219 22.523438 47.03125 22.910156 45.738281 22.910156 C 42.96875 22.910156 40.710938 21.15625 39.917969 18.761719 L 53.722656 18.761719 C 54.691406 18.761719 55.484375 17.992188 55.511719 17.035156 C 55.511719 16.953125 55.511719 16.886719 55.511719 16.808594 C 55.511719 11.597656 51.289062 7.277344 45.726562 7.277344 Z M 39.878906 14.960938 C 40.660156 12.511719 42.929688 10.730469 45.710938 10.730469 C 48.46875 10.730469 50.710938 12.511719 51.476562 14.960938 Z M 39.878906 14.960938 " fill-opacity="1" fill-rule="nonzero"/><path fill="#253342" d="M 83.050781 14.652344 L 83.023438 14.628906 C 82.390625 13.871094 81.261719 13.75 80.484375 14.375 L 70.832031 22.179688 C 69.972656 22.644531 68.992188 22.910156 67.929688 22.910156 C 64.460938 22.910156 61.800781 20.160156 61.800781 16.847656 C 61.800781 13.496094 64.476562 10.746094 67.929688 10.746094 C 68.816406 10.746094 69.652344 10.929688 70.390625 11.265625 L 73.359375 8.859375 C 71.828125 7.859375 69.960938 7.289062 67.929688 7.289062 C 65.644531 7.289062 63.5625 8.019531 61.910156 9.257812 L 61.910156 3.765625 C 61.910156 2.730469 61.0625 1.890625 60.011719 1.890625 L 59.972656 1.890625 C 58.925781 1.890625 58.078125 2.730469 58.078125 3.765625 L 58.078125 16.859375 C 58.105469 22.125 62.378906 26.40625 67.929688 26.40625 C 69.90625 26.40625 71.71875 25.847656 73.238281 24.90625 L 73.253906 24.890625 C 73.304688 24.851562 73.359375 24.824219 73.414062 24.785156 L 73.402344 24.773438 L 82.796875 17.167969 C 83.5625 16.542969 83.683594 15.410156 83.050781 14.652344 Z M 83.050781 14.652344 " fill-opacity="1" fill-rule="nonzero"/><path fill="#00a9fa" d="M 145.132812 8.257812 C 144.785156 7.832031 144.273438 7.59375 143.738281 7.59375 L 143.695312 7.59375 C 142.863281 7.59375 142.125 8.179688 141.933594 8.992188 L 138.953125 22.351562 C 138.832031 22.855469 138.628906 22.921875 138.441406 22.921875 C 138.160156 22.921875 137.996094 22.777344 137.890625 22.417969 L 134.917969 10.507812 C 134.339844 8.234375 133.078125 7.128906 131.035156 7.128906 C 129.003906 7.128906 127.675781 8.273438 127.109375 10.53125 L 124.097656 22.40625 C 124.046875 22.65625 123.871094 22.898438 123.628906 22.898438 C 123.320312 22.898438 123.183594 22.765625 123.078125 22.324219 L 119.988281 8.9375 C 119.796875 8.125 119.074219 7.554688 118.238281 7.554688 L 118.171875 7.554688 C 117.621094 7.554688 117.109375 7.792969 116.761719 8.234375 C 116.410156 8.65625 116.289062 9.203125 116.410156 9.734375 L 119.542969 23.082031 C 120.054688 25.238281 121.574219 26.527344 123.617188 26.527344 C 125.605469 26.527344 126.933594 25.34375 127.460938 23.121094 L 130.511719 11.089844 C 130.605469 10.652344 130.820312 10.597656 130.980469 10.597656 C 131.261719 10.597656 131.425781 10.746094 131.53125 11.105469 L 134.542969 23.164062 C 135.082031 25.394531 136.410156 26.578125 138.386719 26.578125 C 140.402344 26.578125 141.921875 25.289062 142.417969 23.136719 L 145.457031 9.773438 C 145.605469 9.230469 145.484375 8.683594 145.132812 8.257812 Z M 145.132812 8.257812 " fill-opacity="1" fill-rule="nonzero"/><path fill="#00a9fa" d="M 105.296875 7.277344 C 99.757812 7.277344 95.445312 11.554688 95.445312 16.808594 C 95.445312 22.097656 99.730469 26.40625 105.296875 26.40625 C 107.324219 26.40625 109.167969 25.835938 110.710938 24.839844 C 111.761719 24.160156 111.828125 22.683594 110.832031 21.941406 L 110.804688 21.914062 C 110.203125 21.460938 109.367188 21.421875 108.738281 21.859375 C 107.769531 22.523438 106.597656 22.910156 105.308594 22.910156 C 102.539062 22.910156 100.28125 21.15625 99.488281 18.761719 L 113.105469 18.761719 C 114.195312 18.761719 115.09375 17.898438 115.09375 16.835938 C 115.09375 16.820312 115.09375 16.820312 115.09375 16.808594 C 115.066406 11.597656 110.859375 7.277344 105.296875 7.277344 Z M 99.449219 14.960938 C 100.226562 12.511719 102.5 10.730469 105.28125 10.730469 C 108.039062 10.730469 110.28125 12.511719 111.046875 14.960938 Z M 99.449219 14.960938 " fill-opacity="1" fill-rule="nonzero"/><path fill="#00a9fa" d="M 92.753906 3.765625 C 92.753906 2.730469 91.910156 1.890625 90.859375 1.890625 L 90.820312 1.890625 C 89.773438 1.890625 88.925781 2.730469 88.925781 3.765625 L 88.925781 9.230469 C 87.273438 8.007812 85.1875 7.261719 82.902344 7.261719 C 80.523438 7.261719 78.402344 8.046875 76.734375 9.363281 L 76.71875 9.363281 L 69.058594 15.558594 C 68.292969 16.183594 68.171875 17.300781 68.804688 18.070312 L 68.832031 18.097656 C 69.460938 18.855469 70.589844 18.976562 71.371094 18.351562 L 79.53125 11.753906 C 80.484375 11.105469 81.640625 10.730469 82.917969 10.730469 C 86.382812 10.730469 89.046875 13.484375 89.046875 16.835938 C 89.046875 20.144531 86.371094 22.898438 82.917969 22.898438 C 81.988281 22.898438 81.128906 22.699219 80.347656 22.339844 L 77.367188 24.730469 C 78.925781 25.78125 80.832031 26.394531 82.917969 26.394531 C 88.46875 26.394531 92.742188 22.097656 92.769531 16.847656 L 92.769531 3.765625 Z M 92.753906 3.765625 " fill-opacity="1" fill-rule="nonzero"/></svg>